<svg width="87" height="70" viewBox="0 0 87 70" fill="none" xmlns="http://www.w3.org/2000/svg">
<g id="Livello_1">
<g clip-path="url(#clip0_348_39)">
<path id="Vector" d="M13.7677 59.625C11.4282 55.2433 9.12785 50.8426 6.72648 46.496C6.12666 45.4091 5.49898 44.3383 4.95174 43.2233C4.46461 42.232 4.51818 41.7447 5.46041 41.2509C7.93862 39.9542 8.75796 36.3044 7.58418 33.7384C7.22294 32.9483 7.30827 32.3691 8.20714 31.9958C10.3879 31.0883 12.3731 29.7994 14.4565 28.7023C17.0668 27.3261 19.6611 25.9118 22.2554 24.5026C24.7671 23.1386 27.2779 21.7725 29.7937 20.4116C32.3333 19.0367 34.8778 17.672 37.4104 16.2826C39.946 14.8943 42.4936 13.5307 45.0291 12.1475C47.5358 10.7783 50.0536 9.42671 52.5643 8.06578C54.8533 6.82538 57.0951 5.49837 59.4293 4.34047C60.7 3.70988 60.8625 3.83979 61.6289 4.97054C62.9076 6.85616 64.7697 7.60959 67.0252 7.44804C67.8232 7.39128 68.6018 7.23694 69.2929 6.84489C69.9282 6.48501 70.3131 6.70553 70.6021 7.2632C71.2734 8.55995 71.9242 9.86161 72.6675 11.1284C73.9058 13.2401 74.9017 15.4926 76.1069 17.6254C77.5453 20.1698 78.9519 22.7271 80.281 25.3297C80.5499 25.8564 80.965 26.3119 81.2162 26.8651C81.4873 27.4646 81.3801 27.8887 80.8044 28.2349C78.8523 29.4083 77.9287 31.1773 77.7819 33.4223C77.7314 34.1832 77.9636 34.8704 78.2001 35.5453C78.7365 37.0835 78.7213 37.2514 77.2964 38.0207C75.391 39.0491 73.4686 40.0425 71.5551 41.0544C68.6593 42.5822 65.8046 44.1894 62.9107 45.7213C60.4684 47.0133 58.0563 48.362 55.623 49.6726C52.9938 51.0886 50.3767 52.5293 47.7465 53.9432C45.2297 55.2969 42.7199 56.6701 40.2062 58.03C37.6089 59.433 35.0106 60.8391 32.4193 62.2545C30.3602 63.3806 28.2777 64.4747 26.2447 65.6492C25.4545 66.1047 24.9791 65.9129 24.551 65.1375C23.1987 62.6863 19.8137 61.7357 17.3407 62.7496C15.8941 63.3434 15.9245 63.3796 15.1566 62.01C14.7084 61.2087 14.2096 60.4345 13.7356 59.6483C13.748 59.6423 13.7614 59.6332 13.7728 59.6251L13.7677 59.625ZM71.2345 11.6137C70.964 10.7744 70.1499 9.8809 69.6616 8.80858C69.5025 8.4604 69.3272 8.37237 68.9197 8.51442C66.2427 9.44407 63.8347 8.84141 61.595 7.20137C61.0094 6.77262 60.8019 5.79565 60.0446 5.78931C59.3467 5.78465 58.7917 6.47749 58.1465 6.80138C55.5566 8.09892 53.0581 9.55837 50.5145 10.9353C47.942 12.3263 45.3805 13.7349 42.801 15.1114C40.2761 16.4589 37.7814 17.8579 35.2605 19.2085C32.7108 20.5731 30.1802 21.9717 27.6316 23.3384C25.1087 24.6899 22.5969 26.0591 20.0931 27.4447C16.6952 29.3236 13.2522 31.12 9.79608 32.8897C9.14567 33.2237 9.10389 33.5728 9.27887 34.1528C9.58915 35.1944 9.74197 36.2948 9.55719 37.3402C9.23903 39.1384 8.57993 40.812 7.02248 41.9795C6.53469 42.3441 6.36161 42.7952 6.73663 43.4512C7.96013 45.6006 9.08565 47.8053 10.3163 49.9538C11.549 52.1064 12.5641 54.3827 13.7988 56.5343C14.5449 57.8329 15.2127 59.1645 15.9073 60.4881C16.2546 61.15 16.6491 61.4372 17.5539 61.1756C20.4205 60.3424 22.913 61.1817 24.9577 63.3115C25.8554 64.2459 25.9471 64.2931 27.0409 63.4402C27.1411 63.3634 27.2344 63.2722 27.3457 63.2181C30.2421 61.8225 32.9989 60.1711 35.8361 58.6693C38.0835 57.4797 40.2898 56.2158 42.5261 55.0138C45.3006 53.5246 48.068 52.0261 50.8395 50.5307C53.1862 49.2623 55.5129 47.9526 57.8656 46.6965C60.6153 45.2296 63.3639 43.7606 66.0895 42.2493C68.0921 41.138 70.1944 40.1948 72.1578 39.0184C73.3917 38.2808 74.6957 37.6978 75.9415 37.0003C76.4747 36.7028 76.8209 36.4402 76.6025 35.6137C76.3084 34.5056 76.1983 33.3412 76.431 32.1323C76.7854 30.2986 77.7278 28.867 79.0571 27.6652C79.5529 27.2177 79.5861 26.9085 79.2433 26.3923C78.0971 24.669 77.2819 22.7619 76.2523 20.9692C74.5399 17.9924 72.9945 14.919 71.2335 11.6117L71.2345 11.6137Z" stroke="#53E453" stroke-width="0.5" stroke-miterlimit="10"/>
<path id="Vector_2" d="M19.022 31.8767C22.2558 30.0954 25.5514 28.2943 28.8318 26.4673C30.1673 25.7237 31.5578 25.0986 32.8764 24.3096C34.8707 23.1182 37.0018 22.161 39.0344 21.0326C42.9294 18.8712 46.8595 16.7767 50.7775 14.6576C52.8995 13.5086 55.0136 12.3329 57.1436 11.1953C59.0128 10.1972 60.739 10.9123 61.7325 12.8193C63.5591 16.3191 65.4052 19.8119 67.3235 23.2645C68.6841 25.7116 70.0798 28.1366 71.3105 30.652C71.569 31.1837 72.0126 31.5771 72.1396 32.2262C72.4879 34.0011 72.1369 35.0611 70.5566 35.9772C68.7948 36.997 66.9948 37.9538 65.2038 38.924C61.9569 40.6836 58.7009 42.4299 55.453 44.1875C53.497 45.2481 51.5411 46.3087 49.5971 47.3941C46.1815 49.2995 42.6977 51.075 39.3143 53.0412C37.1408 54.3044 34.8255 55.3282 32.647 56.5862C31.3226 57.3525 29.9521 58.0189 28.5996 58.7224C27.0173 59.5453 25.2106 58.9739 24.4189 57.3458C23.4839 55.4281 22.3819 53.6018 21.3964 51.7112C20.0325 49.0949 18.5904 46.5167 17.1822 43.9245C16.0934 41.9211 14.9737 39.9276 13.8983 37.9151C13.1182 36.4521 13.7684 34.5663 15.2629 33.8982C16.5494 33.3211 17.6247 32.3727 19.021 31.8747L19.022 31.8767ZM61.2832 15.2598C61.0457 14.7713 60.864 14.2456 60.5615 13.8015C59.6447 12.4611 59.2797 11.6371 57.4072 12.754C56.2104 13.4684 54.9481 14.0796 53.718 14.7465C51.2063 16.1105 48.6925 17.4704 46.1857 18.8447C43.5666 20.2813 40.9283 21.6839 38.2991 23.105C35.8679 24.4196 33.4316 25.724 31.0214 27.0768C28.0265 28.7573 24.9783 30.3439 21.9352 31.9357C20.1879 32.849 18.4242 33.76 16.7374 34.756C14.963 35.8022 14.6022 36.365 15.7287 38.1998C17.41 40.9344 18.7788 43.8438 20.358 46.6357C21.4195 48.5148 22.4952 50.4023 23.4246 52.3609C24.0927 53.7663 24.9834 55.0583 25.6533 56.4729C26.1771 57.5764 27.0048 57.8059 28.1021 57.28C29.3623 56.6749 30.5632 55.9533 31.7952 55.3008C34.2077 54.0208 36.5779 52.6644 38.9873 51.3834C41.7368 49.9216 44.4633 48.4175 47.2049 46.9392C49.5258 45.691 51.8235 44.4004 54.1464 43.1614C56.8939 41.6955 59.6244 40.1997 62.3599 38.7142C64.4273 37.5892 66.542 36.5457 68.6073 35.4166C69.1291 35.1323 69.6228 34.7852 70.1417 34.4794C70.67 34.1665 70.8498 33.6611 70.8026 33.0139C70.7635 32.4775 70.3628 32.1983 70.1665 31.7842C68.9759 29.2569 67.5069 26.8752 66.2039 24.4102C64.5877 21.3484 62.9097 18.3217 61.2873 15.2629L61.2832 15.2598Z" stroke="#53E453" stroke-width="0.5" stroke-miterlimit="10"/>
</g>
<rect x="0.668303" y="33.4016" width="74.8565" height="39.7469" transform="rotate(-25.9305 0.668303 33.4016)" stroke="black"/>
</g>
<defs>
<clipPath id="clip0_348_39">
<rect y="33.1706" width="75.8565" height="40.7469" transform="rotate(-25.9305 0 33.1706)" fill="white"/>
</clipPath>
</defs>
</svg>
