<svg width="36" height="61" viewBox="0 0 36 61" fill="none" xmlns="http://www.w3.org/2000/svg">
<g id="Livello_1" clip-path="url(#clip0_194_32)">
<path id="Vector" d="M18.0148 52.9318C12.9182 43.726 7.03377 35.2733 3.39217 25.5879C0.234911 17.1927 1.00463 10.2165 7.14833 4.43741C15.6152 -3.52971 29.2512 -0.120889 33.5017 11.3641C35.3305 16.3049 34.2875 21.1585 32.4747 25.8832C29.3356 34.0684 24.5524 41.3438 20.2476 48.8828C19.5362 50.1294 18.8609 51.3978 18.0169 52.9298L18.0148 52.9318ZM23.8591 16.5011C23.9033 13.3003 21.1319 10.3553 18.0309 10.3097C15.0586 10.2661 12.1786 13.1378 12.1123 16.2117C12.04 19.6027 14.7008 22.5398 17.9324 22.631C20.933 22.7162 23.8129 19.7355 23.8571 16.5011H23.8591Z" stroke="#53E453" stroke-miterlimit="10"/>
<path id="Vector_2" d="M10.2294 48.5142C8.5513 49.0037 7.11033 49.3843 5.86431 50.2642C4.18419 51.4513 4.17816 52.8961 5.93666 53.9208C8.6357 55.4944 11.6724 56.0532 14.6809 56.297C19.2229 56.6656 23.7709 56.4199 28.1319 54.7829C28.3128 54.7155 28.5459 54.7353 28.6906 54.6263C29.6714 53.889 31.3696 53.7701 31.3073 52.0954C31.245 50.4128 29.804 49.9768 28.5037 49.5151C27.5994 49.194 26.707 48.8392 25.8348 48.5102C25.8167 48.3913 25.7766 48.3121 25.8007 48.2625C27.6798 44.2056 29.4322 43.9718 33.3733 47.2518C36.842 50.1374 36.7415 54.4004 33.0618 57.0382C30.3587 58.9765 27.2235 59.7712 24.016 60.3599C19.866 61.1229 15.7159 61.0535 11.594 60.3301C8.40861 59.7712 5.26943 58.8933 2.64877 56.8103C-0.840095 54.0397 -0.721522 49.8639 2.85175 47.1348C4.10782 46.1756 5.56888 45.6306 6.9596 44.9409C7.60673 44.6198 8.17347 44.6634 8.55934 45.4839C9.02358 46.4788 9.61644 47.4103 10.2314 48.5122L10.2294 48.5142Z" stroke="#53E453" stroke-miterlimit="10"/>
</g>
<defs>
<clipPath id="clip0_194_32">
<rect width="36" height="61" fill="white"/>
</clipPath>
</defs>
</svg>
