<svg width="131" height="157" viewBox="0 0 131 157" fill="none" xmlns="http://www.w3.org/2000/svg">
<g id="Modalit&#195;&#160;_Isolamento" clip-path="url(#clip0_355_103)">
<path id="Vector" d="M15.5891 95.6602C16.5781 96.265 16.7594 97.1093 18.3158 100.706C19.0369 102.372 19.431 103.491 19.7817 104.496C20.5067 106.573 20.8693 107.622 20.8338 108.297C20.7432 109.931 19.8211 111.18 18.6193 112.806C17.2401 114.671 16.5466 115.433 16.5466 115.433C16.3062 115.7 16.0225 115.994 15.7112 116.478C15.3566 117.027 14.9113 117.715 14.8561 118.531C14.8246 118.987 14.9271 119.36 15.8373 121.119C16.3968 122.199 16.6766 122.741 16.984 123.248C18.4656 125.686 19.8487 127.964 22.1933 130.733C23.3675 132.123 23.0523 131.585 24.7782 133.548C26.5987 135.618 27.0597 136.337 28.163 136.623C28.7581 136.776 29.4673 136.659 30.8583 136.411C32.7143 136.085 33.3172 135.814 34.7712 135.477C37.431 134.864 38.9126 134.526 40.4297 135.131C41.0247 135.367 40.9971 135.5 42.9595 137.201C44.7484 138.752 46.4941 140.138 47.4082 140.864C50.273 143.138 50.8522 143.37 50.9862 144.238C51.0335 144.552 51.0729 145.271 49.0514 147.996C47.9205 149.52 46.9906 150.772 45.2804 152.331C42.6639 154.715 41.3557 155.905 39.4761 155.995C38.4555 156.043 37.5532 155.752 34.8342 154.067C30.6968 151.503 27.8636 149.119 27.6784 148.958C25.2195 146.873 22.8356 144.85 19.9433 141.728C14.7458 136.125 11.6959 131.074 9.88721 128.043C5.51724 120.723 3.25542 114.565 2.4358 111.946C2.32941 111.604 2.4358 111.934 1.27337 107.803C0.221267 104.052 -0.231886 103.322 0.114875 102.214C0.430111 101.209 1.51374 100.471 3.68493 98.9904C6.29745 97.2114 8.0943 96.5124 10.3443 95.6327C11.4003 95.2204 12.4997 94.8473 13.8592 95.0633C14.202 95.1183 14.8955 95.2361 15.5891 95.6602Z" stroke="#53E453" stroke-miterlimit="10"/>
</g>
<defs>
<clipPath id="clip0_355_103">
<rect width="130.42" height="156.33" fill="white"/>
</clipPath>
</defs>
</svg>
