<svg width="44" height="66" viewBox="0 0 44 66" fill="none" xmlns="http://www.w3.org/2000/svg">
<g id="Livello_2" clip-path="url(#clip0_348_36)">
<path id="Vector" d="M12.8625 21.2295C12.4277 21.6878 11.7104 21.4132 10.0248 21.265C8.6909 21.1485 9.08019 21.3164 6.42035 21.265C3.13211 21.2038 0.106689 20.9015 0.106689 20.9015C0.106689 20.9015 0.381368 17.2839 1.05127 14.5534C1.24097 13.7809 1.89309 11.1966 3.47793 8.71111C6.33143 4.23405 10.7381 2.39265 12.6115 1.63791C16.951 -0.108653 20.6622 0.0355768 23.4939 0.175855C27.5647 0.377382 32.6532 0.630278 37.2595 4.31506C38.3305 5.17253 42.0871 8.26854 43.4091 13.8006C43.6976 15.0078 44.6225 19.1253 42.7886 23.5688C41.3915 26.9512 39.0222 29.0001 37.1073 30.6558C34.7301 32.7125 34.1432 32.4636 30.851 35.3087C27.7821 37.9601 26.798 39.4676 26.5431 41.0858C26.4996 41.3663 26.3632 42.368 26.2565 43.5891C26.0451 46.0113 26.1735 46.7107 25.634 47.1276C25.142 47.509 24.6499 47.2264 22.9228 47.1138C22.5256 47.0881 21.583 47.1217 19.6978 47.1889C15.4689 47.339 15.1666 47.5129 14.7655 47.1296C14.1291 46.5211 14.309 45.0689 14.6706 42.1626C14.8643 40.6017 14.9611 39.8233 15.2397 38.8433C15.548 37.7566 16.2574 35.7789 18.2118 33.3448C20.7748 30.1539 21.9249 30.6064 26.0767 26.7418C29.8313 23.2487 30.4636 21.4132 30.6949 20.2495C30.849 19.479 31.181 17.685 30.2581 15.9285C29.1238 13.773 26.8375 13.0874 25.5254 12.6942C22.3656 11.7459 19.682 12.629 18.9093 12.9155C16.5222 13.7947 14.4374 15.561 13.7221 17.2167C13.4751 17.7897 13.3427 18.2599 13.3427 18.2599C12.8585 19.9887 13.3367 20.7276 12.8605 21.2314L12.8625 21.2295Z" stroke="#53E453" stroke-miterlimit="10"/>
<path id="Vector_2" d="M20.3578 65.9012C24.1624 65.9012 27.2465 62.8176 27.2465 59.0138C27.2465 55.2099 24.1624 52.1263 20.3578 52.1263C16.5533 52.1263 13.4691 55.2099 13.4691 59.0138C13.4691 62.8176 16.5533 65.9012 20.3578 65.9012Z" stroke="#53E453" stroke-miterlimit="10"/>
</g>
<defs>
<clipPath id="clip0_348_36">
<rect width="44" height="66" fill="white"/>
</clipPath>
</defs>
</svg>
