<svg width="121" height="95" viewBox="0 0 121 95" fill="none" xmlns="http://www.w3.org/2000/svg">
<g id="Livello_1" clip-path="url(#clip0_194_17)">
<g id="X9tWeJ">
<g id="Group">
<path id="Vector" d="M34.0784 71.4126C33.8166 65.4942 33.567 59.7821 33.3125 54.0724C32.8059 42.7169 32.2823 31.3614 31.7928 20.0059C31.6754 17.2885 32.9503 15.3444 35.4341 14.2987C46.4021 9.68135 57.3799 5.08857 68.365 0.510522C70.7582 -0.488548 72.3048 0.481066 72.4247 3.09288C73.2592 21.1768 74.0765 39.2607 74.8596 57.347C74.9746 60.0055 73.6997 62.0994 71.7053 63.7661C66.6495 67.9907 58.1042 68.3294 52.7108 64.5295C48.3304 61.444 47.9462 56.1835 51.8323 52.5063C56.264 48.3112 64.545 47.4349 70.0951 50.572C70.4988 50.8003 70.9002 51.0311 71.6319 51.4508C71.1326 40.3653 70.6457 29.54 70.144 18.376C58.4493 23.2682 46.9772 28.0696 35.6617 32.8048C35.6617 35.6375 35.5638 38.3573 35.6789 41.0674C36.156 52.3713 36.7385 63.6728 37.2034 74.9768C37.4775 81.6266 34.6658 85.2424 28.1344 86.6784C23.086 87.788 18.2774 87.27 14.225 83.7156C10.7819 80.6939 10.7281 76.1207 13.9387 72.8412C18.2897 68.3933 26.671 67.3353 32.3948 70.5068C32.8867 70.7793 33.3859 71.037 34.0784 71.4101V71.4126Z" stroke="#53E453" stroke-miterlimit="10"/>
<path id="Vector_2" d="M112.166 76.6805C114.461 69.9595 116.514 63.5134 111.828 57.1998C108.627 52.8869 103.366 49.9879 98.4254 50.0247C96.8665 55.0151 95.2857 60.0596 93.7171 65.1065C91.3777 72.6302 88.9306 80.1195 86.76 87.6923C85.5584 91.885 82.8739 94.0918 78.7873 94.6785C73.0023 95.5057 67.9539 93.7997 63.9626 89.5015C61.6991 87.0639 60.5318 84.0962 61.9854 80.802C63.6372 77.0561 67.0387 75.8753 70.7485 75.7158C76.5457 75.4654 81.3763 77.6476 85.2428 82.4761C86.7037 77.7753 88.0961 73.3003 89.4836 68.8254C92.425 59.3428 95.3909 49.8652 98.2908 40.3703C98.9833 38.1046 100.222 37.3756 102.532 38.058C109.819 40.2083 115.915 43.9076 119.272 51.0532C123.136 59.2741 119.757 71.5378 112.171 76.6854L112.166 76.6805Z" stroke="#53E453" stroke-miterlimit="10"/>
<path id="Vector_3" d="M11.6409 44.6047C9.30143 39.7247 7.0819 35.1 4.86482 30.4704C3.39165 27.3922 1.93807 24.3066 0.447775 21.2358C-0.0661193 20.1778 -0.0538839 19.3186 1.08892 18.7123C5.68949 16.2748 10.4516 15.3101 15.1525 18.1453C19.8436 20.9756 21.3608 25.5413 21.1601 31.4449C19.3052 27.8831 17.9642 24.5324 14.2446 23.3738C10.6669 22.2594 7.44652 22.9835 4.34113 25.2811C6.58758 29.9696 8.80467 34.5968 11.0218 39.2288C12.2233 41.74 13.3881 44.2684 14.6312 46.7574C15.4363 48.3702 15.2871 49.9068 14.5162 51.4435C12.884 54.6911 8.18065 56.9691 4.65192 56.2327C1.13541 55.4987 -0.357326 52.3812 1.49025 49.2834C3.67552 45.6234 7.11371 44.2905 11.6433 44.6022L11.6409 44.6047Z" stroke="#53E453" stroke-miterlimit="10"/>
</g>
</g>
</g>
<defs>
<clipPath id="clip0_194_17">
<rect width="121" height="95" fill="white"/>
</clipPath>
</defs>
</svg>
