<svg width="54" height="87" viewBox="0 0 54 87" fill="none" xmlns="http://www.w3.org/2000/svg">
<g id="Livello_1" clip-path="url(#clip0_194_6)">
<path id="Vector" d="M28.0108 0.746745C27.2617 2.48422 26.6377 4.00658 26.5146 5.9447C30.3341 2.06226 34.8205 0.0807125 40.0726 0.103465C45.3369 0.126218 49.6818 2.33943 53.3453 6.07294C46.7141 4.99529 40.4789 5.29314 35.4629 10.7C35.9494 10.9151 36.3455 10.8882 36.7457 10.8613C40.4092 10.6193 43.8407 11.273 46.7797 13.6227C50.2051 16.3613 52.2185 19.9996 53.2242 24.211C53.963 27.3053 54.0349 30.4535 53.7209 33.6119C53.6983 33.8477 53.6182 34.0773 53.5341 34.4372C52.7727 33.1383 52.1077 31.9303 51.3709 30.7679C48.8834 26.8379 45.731 23.6566 41.2506 22.0474C38.4368 21.0359 35.5471 20.7339 32.5978 21.3379C31.5922 21.5427 31.469 21.8261 32.0663 22.5128C36.3311 27.4046 39.3809 33.0162 41.8253 38.9898C44.5221 45.5757 46.4862 52.3808 47.8408 59.3597C48.8177 64.3942 49.4519 69.4743 49.8521 74.5895C50.0635 77.2785 50.0758 79.9715 50.2277 82.6605C50.3385 84.6441 49.77 85.6411 47.925 86.3981C46.2359 87.0911 44.5242 87.0538 42.8535 86.3444C41.5934 85.8107 41.1501 85.0454 41.3409 83.6968C41.6467 81.5146 41.854 79.3262 42.0182 77.1295C42.3569 72.6431 42.478 68.1588 42.1434 63.6682C41.7617 58.5447 40.9448 53.4895 39.6806 48.5108C38.0961 42.2766 35.8714 36.2926 32.4624 30.803C31.1365 28.6684 29.5644 26.7241 27.6968 25.03C27.2781 24.6495 27.0379 24.5419 26.8799 25.2638C25.5705 31.2105 25.1929 37.1365 27.0975 43.0419C28.2776 46.7009 30.2581 49.8801 32.8297 52.7097C33.0432 52.9434 33.2525 53.1813 33.4106 53.4792C26.375 51.6486 20.4683 48.3122 17.3774 41.3086C16.0947 38.3983 15.8812 35.3267 16.4272 32.2033C16.5113 31.7193 16.5216 31.2436 16.3677 30.7079C13.7139 33.4154 12.1685 36.7415 11.1505 40.326C10.1223 43.9396 10.3768 47.6152 10.8406 51.3197C7.21612 47.1953 5.62553 42.289 5.67684 36.9152C5.7302 31.3822 8.37982 26.9144 12.3327 23.1188C11.797 22.8685 11.483 22.9864 11.1444 23.1064C7.81336 24.2813 5.39772 26.662 3.12164 29.2145C2.09545 30.3666 1.13289 31.5745 0.112857 32.7908C-0.143689 22.8872 6.83233 13.8792 18.4713 13.724C17.166 12.3692 13.3117 11.6846 9.08584 12.0858C9.79185 11.2585 10.5923 10.6793 11.4522 10.187C14.4282 8.48058 17.5847 8.10827 20.8767 9.01424C21.5807 9.20867 21.8721 9.14455 22.0692 8.35441C22.8285 5.29521 24.5813 2.91032 27.2227 1.19146C27.4012 1.07562 27.5941 0.982546 28.0128 0.750882L28.0108 0.746745Z" stroke="#53E453" stroke-miterlimit="10"/>
</g>
<defs>
<clipPath id="clip0_194_6">
<rect width="54" height="87" fill="white"/>
</clipPath>
</defs>
</svg>
